<svg xmlns="http://www.w3.org/2000/svg" version="1.1" xmlns:xlink="http://www.w3.org/1999/xlink" xmlns:svgjs="http://svgjs.com/svgjs" width="38" height="38" x="0" y="0" viewBox="0 0 64 64" style="enable-background:new 0 0 512 512" xml:space="preserve" class=""><g><g xmlns="http://www.w3.org/2000/svg" id="Icons" fill="none" fill-rule="evenodd"><g id="Social-Media-Collection" fill="#41A1F2" transform="translate(-219 -87)"><g id="Twitter" transform="translate(219 87)" fill="#41A1F2"><path id="Fill-184" d="m44.724 25.474c.012.282.02.564.02.85 0 8.674-6.604 18.678-18.68 18.678-3.708 0-7.158-1.086-10.064-2.948.514.06 1.036.09 1.566.09 3.076 0 5.906-1.048 8.154-2.81-2.874-.052-5.298-1.95-6.134-4.558.402.076.812.116 1.236.116.598 0 1.178-.08 1.73-.23-3.004-.602-5.266-3.256-5.266-6.436v-.084c.884.492 1.898.788 2.974.822-1.762-1.178-2.922-3.188-2.922-5.464 0-1.204.324-2.332.89-3.302 3.238 3.972 8.076 6.586 13.532 6.86-.112-.48-.17-.982-.17-1.496 0-3.626 2.94-6.566 6.564-6.566 1.89 0 3.596.798 4.792 2.074 1.496-.294 2.902-.84 4.17-1.592-.49 1.532-1.532 2.818-2.886 3.632 1.328-.16 2.592-.512 3.77-1.034-.88 1.316-1.994 2.472-3.276 3.398m-12.724-25.474c-17.674 0-32 14.326-32 32 0 17.672 14.326 32 32 32s32-14.328 32-32c0-17.674-14.326-32-32-32" fill="#E5E5E5" data-original="#000000" class=""></path></g></g></g></g></svg>